<svg viewBox="0 0 152 152" xmlns="http://www.w3.org/2000/svg" xmlns:xlink="http://www.w3.org/1999/xlink"><linearGradient id="linear-gradient" gradientUnits="userSpaceOnUse" x1="68.89" x2="83.11" y1="49.07" y2="63.3"><stop offset="0" stop-color="#e65100"></stop><stop offset="1" stop-color="#e65100" stop-opacity="0"></stop></linearGradient><linearGradient id="linear-gradient-2" x1="64.59" x2="126.65" xlink:href="#linear-gradient" y1="70.77" y2="132.83"></linearGradient><linearGradient id="linear-gradient-3" x1="50.33" x2="61.03" xlink:href="#linear-gradient" y1="86.13" y2="96.83"></linearGradient><g id="Layer_2" data-name="Layer 2"><g id="Color"><g id="_46.Odnoklassniki" data-name="46.Odnoklassniki"><circle id="Background" cx="76" cy="76" fill="#ff9800" r="76"></circle><g id="Shadow"><circle cx="76" cy="56.18" fill="url(#linear-gradient)" r="10.06"></circle><path d="m148.13 100a76.11 76.11 0 0 1 -57.95 50.66l-36.48-36.47a6.78 6.78 0 0 0 9.42-.19l12.88-12.88 12.88 12.88a6.81 6.81 0 0 0 9.63-9.63l-9.72-9.72a60.93 60.93 0 0 0 14.33-5.87 6.85 6.85 0 0 0 -6.7-12 41.41 41.41 0 0 1 -20.42 5.82l-12.59-10.6a20.18 20.18 0 0 0 28.59-28.09z" fill="url(#linear-gradient-2)"></path><path d="m63.21 94.65-4.36 4.35-10.7-10.7a5.94 5.94 0 0 0 .72.47 60.93 60.93 0 0 0 14.34 5.88z" fill="url(#linear-gradient-3)"></path></g><g id="Icon" fill="#fff"><path d="m76 36a20.18 20.18 0 1 0 20.18 20.18 20.17 20.17 0 0 0 -20.18-20.18zm0 30.24a10.06 10.06 0 1 1 10.06-10.06 10.05 10.05 0 0 1 -10.06 10.06z"></path><path d="m105.74 79.45a6.84 6.84 0 0 0 -9.32-2.62c-13.74 7.7-27.1 7.7-40.84 0a6.85 6.85 0 0 0 -6.7 12 60.93 60.93 0 0 0 14.33 5.87l-9.72 9.72a6.81 6.81 0 0 0 0 9.63 6.81 6.81 0 0 0 9.63 0l12.88-12.93 12.88 12.88a6.81 6.81 0 0 0 9.63 0 6.81 6.81 0 0 0 0-9.63l-9.72-9.72a60.93 60.93 0 0 0 14.33-5.87 6.84 6.84 0 0 0 2.62-9.33z"></path></g></g></g></g></svg>